# Blender v3.0.1 OBJ File: ''
# www.blender.org
mtllib bark.mtl
o SapinHiver.001_Cylinder.001
v -0.157753 -0.305506 -0.157753
v -0.000000 -0.305506 -0.223096
v 0.157753 -0.305506 -0.157753
v 0.223096 -0.305506 0.000000
v 0.157753 -0.305506 0.157753
v -0.000000 -0.305506 0.223096
v -0.157753 -0.305506 0.157753
v -0.223096 -0.305506 0.000000
v -0.157753 0.325934 -0.157753
v -0.000000 0.325934 -0.223096
v 0.157753 0.325934 -0.157753
v 0.223096 0.325934 0.000000
v 0.157753 0.325934 0.157753
v -0.000000 0.325934 0.223096
v -0.157753 0.325934 0.157753
v -0.223096 0.325934 0.000000
v -0.157753 0.641654 -0.157753
v -0.000000 0.641654 -0.223096
v 0.157753 0.641654 -0.157753
v 0.223096 0.641654 0.000000
v 0.157753 0.641654 0.157753
v -0.000000 0.641654 0.223096
v -0.157753 0.641654 0.157753
v -0.223096 0.641654 0.000000
v -0.157753 0.799514 -0.157753
v -0.000000 0.799514 -0.223096
v 0.157753 0.799514 -0.157753
v 0.223096 0.799514 0.000000
v 0.157753 0.799514 0.157753
v -0.000000 0.799514 0.223096
v -0.157753 0.799514 0.157753
v -0.223096 0.799514 0.000000
v -0.157753 0.875977 -0.157753
v -0.000000 0.875977 -0.223096
v 0.157753 0.875977 -0.157753
v 0.223096 0.875977 0.000000
v 0.157753 0.875977 0.157753
v -0.000000 0.875977 0.223096
v -0.157753 0.875977 0.157753
v -0.223096 0.875977 0.000000
vn 0.0000 -1.0000 -0.0000
vn -0.9239 0.0000 0.3827
vn -0.9239 0.0000 -0.3827
vn -0.3827 0.0000 0.9239
vn 0.3827 0.0000 0.9239
vn 0.9239 0.0000 0.3827
vn 0.9239 0.0000 -0.3827
vn 0.3827 0.0000 -0.9239
vn -0.3827 0.0000 -0.9239
usemtl Material.008
s off
f 1//1 2//1 3//1 4//1 5//1 6//1 7//1 8//1
f 7//2 15//2 16//2 8//2
f 8//3 16//3 9//3 1//3
f 6//4 14//4 15//4 7//4
f 5//5 13//5 14//5 6//5
f 4//6 12//6 13//6 5//6
f 3//7 11//7 12//7 4//7
f 2//8 10//8 11//8 3//8
f 1//9 9//9 10//9 2//9
f 15//2 23//2 24//2 16//2
f 16//3 24//3 17//3 9//3
f 14//4 22//4 23//4 15//4
f 13//5 21//5 22//5 14//5
f 12//6 20//6 21//6 13//6
f 11//7 19//7 20//7 12//7
f 10//8 18//8 19//8 11//8
f 9//9 17//9 18//9 10//9
f 23//2 31//2 32//2 24//2
f 24//3 32//3 25//3 17//3
f 22//4 30//4 31//4 23//4
f 21//5 29//5 30//5 22//5
f 20//6 28//6 29//6 21//6
f 19//7 27//7 28//7 20//7
f 18//8 26//8 27//8 19//8
f 17//9 25//9 26//9 18//9
f 31//2 39//2 40//2 32//2
f 32//3 40//3 33//3 25//3
f 30//4 38//4 39//4 31//4
f 29//5 37//5 38//5 30//5
f 28//6 36//6 37//6 29//6
f 27//7 35//7 36//7 28//7
f 26//8 34//8 35//8 27//8
f 25//9 33//9 34//9 26//9
