# Blender v3.0.1 OBJ File: ''
# www.blender.org
mtllib pine.mtl
o SapinHiver.015_Cylinder.034
v 0.000000 1.075501 -0.744048
v -0.000000 4.980948 -0.010250
v 0.487461 1.168560 -0.487461
v 0.007248 4.980948 -0.007248
v 0.744048 1.075501 0.000000
v 0.010250 4.980948 -0.000000
v 0.487461 1.168560 0.487461
v 0.007248 4.980948 0.007248
v -0.000000 1.075501 0.744048
v -0.000000 4.980948 0.010250
v -0.487461 1.168560 0.487461
v -0.007248 4.980948 0.007248
v -0.744048 1.075501 -0.000000
v -0.010250 4.980948 -0.000000
v -0.487461 1.168560 -0.487461
v -0.007248 4.980948 -0.007248
v 0.000000 1.710899 -0.631615
v 0.000000 2.346297 -0.519183
v -0.000000 2.981695 -0.406750
v -0.000000 3.617093 -0.294317
v -0.000000 4.252491 -0.181885
v 0.119161 4.345551 -0.119161
v 0.192821 3.710152 -0.192821
v 0.266481 3.074754 -0.266481
v 0.340141 2.439356 -0.340141
v 0.413801 1.803958 -0.413801
v 0.181885 4.252491 0.000000
v 0.294317 3.617093 0.000000
v 0.406750 2.981695 0.000000
v 0.519183 2.346297 0.000000
v 0.631615 1.710899 0.000000
v 0.119161 4.345551 0.119161
v 0.192821 3.710152 0.192821
v 0.266481 3.074754 0.266481
v 0.340141 2.439356 0.340141
v 0.413801 1.803958 0.413801
v -0.000000 4.252491 0.181885
v -0.000000 3.617093 0.294317
v -0.000000 2.981695 0.406750
v -0.000000 2.346297 0.519183
v -0.000000 1.710899 0.631615
v -0.119162 4.345551 0.119161
v -0.192821 3.710152 0.192821
v -0.266481 3.074754 0.266481
v -0.340141 2.439356 0.340141
v -0.413801 1.803958 0.413801
v -0.181885 4.252491 -0.000000
v -0.294317 3.617093 -0.000000
v -0.406750 2.981695 -0.000000
v -0.519183 2.346297 -0.000000
v -0.631615 1.710899 -0.000000
v -0.119162 4.345551 -0.119161
v -0.192821 3.710152 -0.192821
v -0.266481 3.074754 -0.266481
v -0.340141 2.439356 -0.340141
v -0.413801 1.803958 -0.413801
v -0.000000 4.222447 -0.257216
v 0.168514 4.315507 -0.168514
v 0.257216 4.222447 0.000000
v 0.168514 4.315507 0.168514
v -0.000000 4.222447 0.257216
v -0.168514 4.315507 0.168514
v -0.257216 4.222447 -0.000000
v -0.168514 4.315507 -0.168514
v 0.000000 3.587050 -0.420704
v 0.275623 3.680109 -0.275623
v 0.420704 3.587050 0.000000
v 0.275623 3.680109 0.275623
v -0.000000 3.587050 0.420704
v -0.275623 3.680109 0.275623
v -0.420704 3.587050 -0.000000
v -0.275623 3.680109 -0.275623
v 0.000000 2.951652 -0.572695
v 0.375200 3.044711 -0.375200
v 0.572694 2.951652 0.000000
v 0.375200 3.044711 0.375200
v -0.000000 2.951652 0.572695
v -0.375200 3.044711 0.375200
v -0.572695 2.951652 -0.000000
v -0.375200 3.044711 -0.375200
v 0.000000 2.316253 -0.732437
v 0.479855 2.409313 -0.479855
v 0.732437 2.316253 0.000000
v 0.479855 2.409313 0.479855
v -0.000000 2.316253 0.732437
v -0.479855 2.409313 0.479855
v -0.732437 2.316253 -0.000000
v -0.479855 2.409313 -0.479855
v 0.000000 1.680855 -0.893862
v 0.585612 1.773915 -0.585612
v 0.893862 1.680855 0.000000
v 0.585612 1.773915 0.585612
v -0.000000 1.680855 0.893862
v -0.585612 1.773915 0.585611
v -0.893861 1.680855 -0.000000
v -0.585612 1.773915 -0.585612
v 0.681901 1.138517 -0.681901
v 1.040835 1.045457 0.000000
v 0.681901 1.138517 0.681901
v -0.000000 1.045457 1.040835
v -0.681901 1.138517 0.681901
v -1.040835 1.045457 -0.000000
v -0.681901 1.138517 -0.681901
v 0.000000 1.045457 -1.040835
v -0.000000 -0.026756 -0.223096
v -0.000000 1.236124 -0.223096
v 0.157753 -0.026756 -0.157753
v 0.157753 1.236124 -0.157753
v 0.223096 -0.026756 0.000000
v 0.223096 1.236124 0.000000
v 0.157753 -0.026756 0.157753
v 0.157753 1.236124 0.157753
v -0.000000 -0.026756 0.223096
v -0.000000 1.236124 0.223096
v -0.157753 -0.026756 0.157753
v -0.157753 1.236124 0.157753
v -0.223096 -0.026756 -0.000000
v -0.223096 1.236124 -0.000000
v -0.157753 -0.026756 -0.157753
v -0.157753 1.236124 -0.157753
vn 0.3827 0.0000 -0.9239
vn 0.9239 0.0000 -0.3827
vn 0.9239 0.0000 0.3827
vn 0.3827 0.0000 0.9239
vn -0.3827 0.0000 0.9239
vn -0.9239 0.0000 0.3827
vn 0.0000 1.0000 0.0000
vn -0.3827 0.0000 -0.9239
vn -0.9239 0.0000 -0.3827
vn 0.0000 -1.0000 -0.0000
vn 0.3149 0.2944 -0.9023
vn 0.9023 0.2944 -0.3149
vn 0.9023 0.2944 0.3149
vn 0.3149 0.2944 0.9023
vn -0.3149 0.2944 0.9023
vn -0.9023 0.2944 0.3149
vn -0.3149 0.2944 -0.9023
vn -0.9023 0.2944 -0.3149
vn 0.3434 0.4800 -0.8073
vn 0.3443 0.4480 -0.8251
vn 0.3471 0.3993 -0.8486
vn 0.3444 0.3489 -0.8716
vn 0.3275 0.3042 -0.8946
vn 0.8073 0.4800 -0.3434
vn 0.8251 0.4480 -0.3443
vn 0.8486 0.3993 -0.3471
vn 0.8716 0.3489 -0.3444
vn 0.8946 0.3042 -0.3275
vn 0.8073 0.4800 0.3434
vn 0.8251 0.4480 0.3443
vn 0.8486 0.3993 0.3471
vn 0.8716 0.3489 0.3444
vn 0.8946 0.3042 0.3275
vn 0.3434 0.4800 0.8073
vn 0.3443 0.4480 0.8251
vn 0.3471 0.3993 0.8486
vn 0.3444 0.3489 0.8716
vn 0.3275 0.3042 0.8946
vn -0.3434 0.4800 0.8073
vn -0.3443 0.4480 0.8251
vn -0.3471 0.3993 0.8486
vn -0.3444 0.3489 0.8716
vn -0.3275 0.3042 0.8946
vn -0.8073 0.4800 0.3434
vn -0.8251 0.4480 0.3443
vn -0.8486 0.3993 0.3471
vn -0.8716 0.3489 0.3444
vn -0.8946 0.3042 0.3275
vn -0.3434 0.4800 -0.8073
vn -0.3443 0.4480 -0.8251
vn -0.3471 0.3993 -0.8486
vn -0.3444 0.3489 -0.8716
vn -0.3275 0.3042 -0.8946
vn -0.8073 0.4800 -0.3434
vn -0.8251 0.4480 -0.3443
vn -0.8486 0.3993 -0.3471
vn -0.8716 0.3489 -0.3444
vn -0.8946 0.3042 -0.3275
vn 0.2676 -0.8223 0.5022
vn -0.5022 -0.8223 -0.2676
vn -0.5022 -0.8223 0.2676
vn 0.2676 -0.8223 -0.5022
vn -0.2676 -0.8223 -0.5022
vn 0.5022 -0.8223 0.2676
vn -0.2676 -0.8223 0.5022
vn 0.5022 -0.8223 -0.2676
vn 0.1878 -0.9218 0.3391
vn -0.3391 -0.9218 -0.1878
vn -0.3391 -0.9218 0.1878
vn 0.1878 -0.9218 -0.3391
vn -0.1878 -0.9218 -0.3391
vn 0.3391 -0.9218 0.1878
vn -0.1878 -0.9218 0.3391
vn 0.3391 -0.9218 -0.1878
vn 0.1382 -0.9547 0.2636
vn -0.2635 -0.9547 -0.1382
vn -0.2635 -0.9547 0.1382
vn 0.1382 -0.9547 -0.2635
vn -0.1382 -0.9547 -0.2635
vn 0.2635 -0.9547 0.1382
vn -0.1382 -0.9547 0.2636
vn 0.2635 -0.9547 -0.1382
vn 0.1105 -0.9716 0.2091
vn -0.2091 -0.9716 -0.1105
vn -0.2091 -0.9716 0.1105
vn 0.1105 -0.9716 -0.2091
vn -0.1105 -0.9716 -0.2091
vn 0.2091 -0.9716 0.1105
vn -0.1105 -0.9716 0.2091
vn 0.2091 -0.9716 -0.1105
vn 0.0920 -0.9808 0.1722
vn -0.1722 -0.9808 -0.0920
vn -0.1722 -0.9808 0.0920
vn 0.0920 -0.9808 -0.1722
vn -0.0920 -0.9808 -0.1722
vn 0.1722 -0.9808 0.0920
vn -0.0920 -0.9808 0.1722
vn 0.1722 -0.9808 -0.0920
vn 0.0773 -0.9855 0.1511
vn -0.1511 -0.9855 -0.0773
vn -0.1511 -0.9855 0.0773
vn 0.0773 -0.9855 -0.1511
vn -0.0773 -0.9855 -0.1511
vn 0.1511 -0.9855 0.0773
vn -0.0773 -0.9855 0.1511
vn 0.1511 -0.9855 -0.0773
usemtl Material.008
s off
f 105//1 106//1 108//1 107//1
f 107//2 108//2 110//2 109//2
f 109//3 110//3 112//3 111//3
f 111//4 112//4 114//4 113//4
f 113//5 114//5 116//5 115//5
f 115//6 116//6 118//6 117//6
f 108//7 106//7 120//7 118//7 116//7 114//7 112//7 110//7
f 119//8 120//8 106//8 105//8
f 117//9 118//9 120//9 119//9
f 105//10 107//10 109//10 111//10 113//10 115//10 117//10 119//10
usemtl Material.009
f 57//11 2//11 4//11 58//11
f 58//12 4//12 6//12 59//12
f 59//13 6//13 8//13 60//13
f 60//14 8//14 10//14 61//14
f 61//15 10//15 12//15 62//15
f 62//16 12//16 14//16 63//16
f 64//17 16//17 2//17 57//17
f 63//18 14//18 16//18 64//18
f 1//10 3//10 5//10 7//10 9//10 11//10 13//10 15//10
f 4//7 2//7 16//7 14//7 12//7 10//7 8//7 6//7
f 104//19 17//19 26//19 97//19
f 89//20 18//20 25//20 90//20
f 81//21 19//21 24//21 82//21
f 73//22 20//22 23//22 74//22
f 65//23 21//23 22//23 66//23
f 97//24 26//24 31//24 98//24
f 90//25 25//25 30//25 91//25
f 82//26 24//26 29//26 83//26
f 74//27 23//27 28//27 75//27
f 66//28 22//28 27//28 67//28
f 98//29 31//29 36//29 99//29
f 91//30 30//30 35//30 92//30
f 83//31 29//31 34//31 84//31
f 75//32 28//32 33//32 76//32
f 67//33 27//33 32//33 68//33
f 99//34 36//34 41//34 100//34
f 92//35 35//35 40//35 93//35
f 84//36 34//36 39//36 85//36
f 76//37 33//37 38//37 77//37
f 68//38 32//38 37//38 69//38
f 100//39 41//39 46//39 101//39
f 93//40 40//40 45//40 94//40
f 85//41 39//41 44//41 86//41
f 77//42 38//42 43//42 78//42
f 69//43 37//43 42//43 70//43
f 101//44 46//44 51//44 102//44
f 94//45 45//45 50//45 95//45
f 86//46 44//46 49//46 87//46
f 78//47 43//47 48//47 79//47
f 70//48 42//48 47//48 71//48
f 103//49 56//49 17//49 104//49
f 96//50 55//50 18//50 89//50
f 88//51 54//51 19//51 81//51
f 80//52 53//52 20//52 73//52
f 72//53 52//53 21//53 65//53
f 102//54 51//54 56//54 103//54
f 95//55 50//55 55//55 96//55
f 87//56 49//56 54//56 88//56
f 79//57 48//57 53//57 80//57
f 71//58 47//58 52//58 72//58
f 21//59 57//59 58//59 22//59
f 22//60 58//60 59//60 27//60
f 27//61 59//61 60//61 32//61
f 32//62 60//62 61//62 37//62
f 37//63 61//63 62//63 42//63
f 42//64 62//64 63//64 47//64
f 52//65 64//65 57//65 21//65
f 47//66 63//66 64//66 52//66
f 20//67 65//67 66//67 23//67
f 23//68 66//68 67//68 28//68
f 28//69 67//69 68//69 33//69
f 33//70 68//70 69//70 38//70
f 38//71 69//71 70//71 43//71
f 43//72 70//72 71//72 48//72
f 53//73 72//73 65//73 20//73
f 48//74 71//74 72//74 53//74
f 19//75 73//75 74//75 24//75
f 24//76 74//76 75//76 29//76
f 29//77 75//77 76//77 34//77
f 34//78 76//78 77//78 39//78
f 39//79 77//79 78//79 44//79
f 44//80 78//80 79//80 49//80
f 54//81 80//81 73//81 19//81
f 49//82 79//82 80//82 54//82
f 18//83 81//83 82//83 25//83
f 25//84 82//84 83//84 30//84
f 30//85 83//85 84//85 35//85
f 35//86 84//86 85//86 40//86
f 40//87 85//87 86//87 45//87
f 45//88 86//88 87//88 50//88
f 55//89 88//89 81//89 18//89
f 50//90 87//90 88//90 55//90
f 17//91 89//91 90//91 26//91
f 26//92 90//92 91//92 31//92
f 31//93 91//93 92//93 36//93
f 36//94 92//94 93//94 41//94
f 41//95 93//95 94//95 46//95
f 46//96 94//96 95//96 51//96
f 56//97 96//97 89//97 17//97
f 51//98 95//98 96//98 56//98
f 1//99 104//99 97//99 3//99
f 3//100 97//100 98//100 5//100
f 5//101 98//101 99//101 7//101
f 7//102 99//102 100//102 9//102
f 9//103 100//103 101//103 11//103
f 11//104 101//104 102//104 13//104
f 15//105 103//105 104//105 1//105
f 13//106 102//106 103//106 15//106
